<svg width="57" height="43" viewBox="0 0 57 43" fill="none" xmlns="http://www.w3.org/2000/svg">
<path d="M18.0997 10.9556C18.1221 10.9556 18.1482 10.9556 18.1743 10.9556C21.7704 10.9556 25.0266 12.4082 27.3904 14.7589C29.3826 16.6297 31.2105 18.5752 33.1298 20.5226C33.4603 20.8419 33.6657 21.29 33.6657 21.7866C33.6657 22.0312 33.6153 22.2665 33.5238 22.4775L33.5275 22.4663C33.2755 23.1328 32.6668 23.6071 31.9405 23.6612H31.9349C31.8658 23.6706 31.7874 23.6762 31.7071 23.6762C31.2142 23.6762 30.7698 23.4633 30.4617 23.1254L30.4599 23.1235C28.6301 21.2937 26.8041 19.4901 25.0005 17.6398C23.6207 16.2134 21.8003 15.2219 19.7595 14.8802L19.7035 14.8728C19.2031 14.7831 18.628 14.7309 18.0418 14.7309C12.6272 14.7309 8.23762 19.1204 8.23762 24.535C8.23762 29.1673 11.4509 33.0509 15.7714 34.074L15.8386 34.0871C16.6527 34.2496 17.5881 34.341 18.5459 34.341C18.8222 34.341 19.0967 34.3336 19.3693 34.3186L19.3319 34.3205C19.3525 34.3186 19.3749 34.3186 19.3992 34.3186C19.6699 34.3186 19.9126 34.4363 20.0788 34.623C21.2065 35.7264 22.3996 36.828 23.5721 37.9259C23.6412 37.9968 23.7346 38.0659 23.8055 38.135C23.6655 38.135 23.5721 38.1574 23.4788 38.1574H18.1127C11.6432 38.1555 6.22862 33.6409 4.84697 27.5915L4.83016 27.5C4.61731 26.6019 4.49408 25.5713 4.49408 24.5108C4.49408 18.4893 8.44487 13.3903 13.8949 11.6651L13.9902 11.6389C15.2131 11.2375 16.6209 10.9892 18.0829 10.9537H18.1015L18.0997 10.9556ZM35.8446 4.74188C35.8894 4.74188 35.9436 4.74188 35.9958 4.74188C40.9623 4.74188 45.4135 6.95439 48.4139 10.4496L48.4326 10.472C50.9681 13.3922 52.5122 17.2309 52.5122 21.43C52.5122 22.2086 52.4599 22.9741 52.3573 23.7247L52.3666 23.6369C51.3864 30.6442 46.1995 36.2119 39.4761 37.7429L39.3641 37.7653C38.27 38.0155 37.0134 38.1593 35.7232 38.1593C34.8998 38.1593 34.0914 38.1014 33.2997 37.9875L33.3912 37.9987C30.7343 37.6888 28.35 36.7272 26.341 35.2765L26.3859 35.3063C25.8033 34.8881 25.2917 34.4493 24.8194 33.9714L24.8175 33.9695C21.9571 31.1576 19.1247 28.3234 16.2643 25.5115C15.8853 25.1792 15.6482 24.6937 15.6482 24.1523C15.6482 23.8535 15.721 23.5697 15.8498 23.3214L15.8442 23.3307C16.1541 22.6642 16.8188 22.2105 17.5881 22.2105C17.6833 22.2105 17.7766 22.2179 17.8681 22.231L17.8569 22.2292C18.348 22.3076 18.7699 22.554 19.0724 22.9069L19.0743 22.9106C21.6528 25.5096 24.2069 28.0638 26.7836 30.6666C28.6581 32.5785 31.1507 33.878 33.9383 34.2439L33.9999 34.2514C34.6048 34.356 35.3031 34.4157 36.0145 34.4157C39.7954 34.4157 43.1823 32.7316 45.4658 30.0728L45.4788 30.056C47.0621 28.2804 48.1656 26.0436 48.5633 23.5716L48.5726 23.4988C48.6996 22.836 48.7724 22.0723 48.7724 21.2919C48.7724 18.3418 47.7324 15.6364 45.9998 13.5191L46.0166 13.5415C43.6323 10.4851 39.9466 8.53769 35.8073 8.53769C33.212 8.53769 30.7941 9.3032 28.7701 10.6214L28.8206 10.5915C28.7701 10.6214 28.7085 10.6382 28.6432 10.6382C28.5965 10.6382 28.5536 10.6288 28.5125 10.6139C27.5621 9.90254 26.4885 9.23972 25.3571 8.67586L25.2339 8.61985C25.2152 8.59931 25.2002 8.5769 25.1872 8.55076V8.5489C26.0404 7.8338 27.002 7.19525 28.0289 6.66872L28.1167 6.62765C29.8979 5.64182 31.9946 4.98647 34.2221 4.80162L34.2781 4.79789C34.7984 4.75806 35.3193 4.73939 35.8409 4.74188H35.8446ZM34.9839 0.791087C34.4443 0.837765 33.8823 0.884443 33.3446 0.953526C30.8912 1.23359 28.6563 1.92068 26.6248 2.95132L26.7369 2.89905C24.5188 3.99877 22.6236 5.38602 21.0011 7.04214L20.9974 7.04588C20.9339 7.12056 20.8387 7.16911 20.7341 7.16911C20.7117 7.16911 20.6893 7.16724 20.6669 7.16164H20.6688C19.8995 7.04214 19.0108 6.97493 18.1053 6.97493C10.6126 6.97493 4.21215 11.6502 1.66169 18.2429L1.62061 18.3624C1.03621 19.8318 0.651587 21.5309 0.545163 23.3083L0.543296 23.3531C0.541429 23.4614 0.524625 23.566 0.494751 23.665L0.496618 23.6575V25.4611C0.543296 25.9297 0.614246 26.376 0.659056 26.8446C0.907381 28.8667 1.48618 30.7021 2.34318 32.3731L2.30024 32.2798C4.16921 36.0494 7.24993 38.9827 11.0215 40.622L11.1335 40.6649C12.8083 41.423 14.7557 41.9196 16.802 42.0466L16.8487 42.0484C16.9196 42.0484 16.9887 42.0578 17.0559 42.0727L17.0503 42.0708H37.0601C37.4877 42.0316 37.904 41.9887 38.3372 41.9308C40.7719 41.6507 42.99 40.9637 45.0065 39.933L44.8963 39.9834C48.4457 38.2246 51.3341 35.592 53.3524 32.3619L53.4028 32.2742C54.7415 30.211 55.7106 27.78 56.1493 25.1698L56.1643 25.0578C56.28 24.2643 56.351 23.4428 56.4462 22.6455C56.4481 22.5372 56.4649 22.4327 56.4948 22.3337L56.4929 22.3412V20.489C56.4462 19.9532 56.3771 19.4341 56.3771 18.9449C56.0971 16.5084 55.41 14.2902 54.3793 12.2738L54.4297 12.3839C52.6467 8.8383 50.001 5.95362 46.7615 3.93155L46.6738 3.88114C44.6237 2.55923 42.2095 1.59768 39.6199 1.15517L39.506 1.13837C38.6621 0.998336 37.8424 0.929253 36.9985 0.835898C36.8808 0.832164 36.7688 0.81536 36.6605 0.787354L36.6717 0.78922L34.9839 0.791087Z" fill="white"/>
</svg>
