<svg width="35" height="41" viewBox="0 0 35 41" fill="none" xmlns="http://www.w3.org/2000/svg">
<path fill-rule="evenodd" clip-rule="evenodd" d="M23.6365 6.81579C25.0947 5.12581 26.0776 2.77201 25.8086 0.430054C23.7073 0.510054 21.1652 1.77235 19.6585 3.46033C18.3055 4.95831 17.1244 7.35185 17.4419 9.64782C19.7859 9.8218 22.1784 8.50775 23.6365 6.81579ZM28.8927 21.68C28.9514 27.734 34.4341 29.7478 34.4948 29.7738C34.4503 29.9158 33.6191 32.6433 31.6068 35.4632C29.8655 37.8992 28.0595 40.3253 25.214 40.3773C22.4191 40.4273 21.5191 38.7894 18.3217 38.7894C15.1263 38.7894 14.1272 40.3251 11.482 40.4271C8.73554 40.5251 6.64236 37.7916 4.88895 35.3636C1.30122 30.3977 -1.43912 21.3302 2.24164 15.2103C4.06988 12.1724 7.33604 10.2456 10.8833 10.1976C13.5792 10.1476 16.1254 11.9359 17.7736 11.9359C19.4219 11.9359 22.5161 9.78593 25.7681 10.1019C27.1292 10.1559 30.9515 10.6278 33.4047 14.0697C33.2065 14.1877 28.8442 16.6201 28.8927 21.68Z" fill="white"/>
</svg>
