<svg width="91" height="27" viewBox="0 0 91 27" fill="none" xmlns="http://www.w3.org/2000/svg">
<path d="M49.2598 17.1801C49.2598 19.9701 45.791 19.8051 45.791 19.8051H42.3223V14.7689H45.791C49.361 14.7426 49.2598 17.1839 49.2598 17.1839M42.3223 7.0851H44.9622C47.7072 7.2351 47.606 9.2751 47.606 9.2751C47.606 11.8139 44.5685 11.8551 44.5685 11.8551H42.3185L42.3223 7.0851ZM48.6185 12.8451C48.6185 12.8451 50.9923 11.8326 50.9697 9.15135C50.9697 9.15135 51.3298 4.7526 45.5023 4.21635H39.0373V22.6551H46.451C46.451 22.6551 52.6385 22.6701 52.6385 17.4501C52.6385 17.4501 52.7885 13.8989 48.6185 12.8451ZM31.8822 0.605103H59.0998V26.2551H31.886L31.8822 0.605103ZM17.8685 17.1801C17.8685 19.9701 14.3998 19.8051 14.3998 19.8051H10.931V14.7689H14.3998C17.9698 14.7426 17.8685 17.1839 17.8685 17.1839M10.931 7.0851H13.5748C16.3198 7.2351 16.2148 9.2751 16.2148 9.2751C16.2148 11.8139 13.1773 11.8551 13.1773 11.8551H10.931V7.0851ZM17.2273 12.8451C17.2273 12.8451 19.601 11.8326 19.5785 9.15135C19.5785 9.15135 19.9423 4.7526 14.1148 4.21635H7.64975V22.6551H15.0598C15.0598 22.6551 21.251 22.6701 21.251 17.4501C21.251 17.4501 21.401 13.8989 17.2273 12.8451ZM0.494751 0.605103H27.716V26.2551H0.494751V0.605103ZM84.9448 5.5401V8.9451C84.9448 8.9451 81.6185 6.90135 77.9435 6.8601C77.9435 6.8601 71.0885 6.7251 70.781 13.4301C70.781 13.4301 70.5335 19.5989 77.861 19.9476C77.861 19.9476 80.936 20.3189 85.106 17.6601V21.1851C85.106 21.1851 79.511 24.5114 73.031 21.9501C73.031 21.9501 67.5785 19.9626 67.3723 13.4301C67.3723 13.4301 67.1472 6.7176 74.4147 4.48635C74.4147 4.48635 76.3535 3.74385 79.841 4.07385C79.841 4.07385 81.926 4.2801 84.941 5.53635M63.2735 26.2551H90.4948V0.605103H63.2735V26.2551Z" fill="white"/>
</svg>
