<svg width="63" height="63" viewBox="0 0 63 63" fill="none" xmlns="http://www.w3.org/2000/svg">
<path d="M59.4167 9.16699V7.77116C59.4167 3.91866 56.2901 0.791992 52.4376 0.791992C48.5851 0.791992 45.4584 3.91866 45.4584 7.77116V9.16699C43.923 9.16699 42.6667 10.4232 42.6667 11.9587V23.1253C42.6667 24.6607 43.923 25.917 45.4584 25.917H59.4167C60.9522 25.917 62.2084 24.6607 62.2084 23.1253V11.9587C62.2084 10.4232 60.9522 9.16699 59.4167 9.16699ZM57.1834 9.16699H47.6917V7.77116C47.6917 5.14699 49.8134 3.02533 52.4376 3.02533C55.0617 3.02533 57.1834 5.14699 57.1834 7.77116V9.16699ZM50.8184 31.5003C50.9301 32.4216 51.0417 33.3428 51.0417 34.292C51.0417 40.0987 48.8084 45.3749 45.1792 49.3391C44.4534 47.0778 42.3876 45.4587 39.8751 45.4587H37.0834V37.0837C37.0834 35.5482 35.8272 34.292 34.2917 34.292H17.5417V28.7087H23.1251C24.6605 28.7087 25.9167 27.4524 25.9167 25.917V20.3337H31.5001C34.5709 20.3337 37.0834 17.8212 37.0834 14.7503V7.65949C34.4313 6.82199 31.6397 6.37533 28.7084 6.37533C13.2984 6.37533 0.791748 18.882 0.791748 34.292C0.791748 49.702 13.2984 62.2087 28.7084 62.2087C44.1184 62.2087 56.6251 49.702 56.6251 34.292C56.6251 33.3428 56.5693 32.4216 56.4855 31.5003H50.8184ZM25.9167 56.4299C14.8897 55.062 6.37508 45.682 6.37508 34.292C6.37508 32.5612 6.59841 30.9141 6.96133 29.2949L20.3334 42.667V45.4587C20.3334 48.5295 22.8459 51.042 25.9167 51.042V56.4299Z" fill="#54F4FC"/>
</svg>
