<svg width="71" height="79" viewBox="0 0 71 79" fill="none" xmlns="http://www.w3.org/2000/svg">
<path d="M48.9583 48.9583C48.9583 56.7917 39.1667 62.6667 39.1667 68.5417H31.3333C31.3333 62.6667 21.5417 56.7917 21.5417 48.9583C21.5417 41.3992 27.6908 35.25 35.25 35.25C42.8092 35.25 48.9583 41.3992 48.9583 48.9583ZM39.1667 72.4583H31.3333V78.3333H39.1667V72.4583ZM62.6667 47C62.6667 53.58 60.3558 59.5725 56.4783 64.3117L62.04 69.8733C67.2883 63.7242 70.5 55.7342 70.5 47C70.5 36.2683 65.6825 26.6725 58.1233 20.21L52.5617 25.7717C58.7108 30.785 62.6667 38.4617 62.6667 47ZM50.9167 15.6667L35.25 0V11.75C15.7842 11.75 0 27.5342 0 47C0 55.7342 3.21167 63.7242 8.46 69.8733L14.0217 64.3117C10.1442 59.5725 7.83333 53.58 7.83333 47C7.83333 31.8817 20.1317 19.5833 35.25 19.5833V31.3333L50.9167 15.6667Z" fill="#54F4FC" fill-opacity="0.87"/>
</svg>
