<svg width="54" height="45" viewBox="0 0 54 45" fill="none" xmlns="http://www.w3.org/2000/svg">
<path d="M45.8787 0.515922L26.7839 13.8862C21.1779 9.871 13.4271 9.60678 7.45859 13.786C-0.110716 19.0861 -1.95489 29.5449 3.3452 37.1142C8.64528 44.6835 19.1041 46.5277 26.6734 41.2276C32.6419 37.0484 35.0446 29.6747 33.1889 23.0334L33.9893 22.473L41.7653 23.8441L43.1365 16.0681L50.9125 17.4392L53.5907 1.79558L45.8787 0.515922ZM21.8697 34.3672C18.0965 37.0092 12.8476 36.0837 10.2056 32.3105C7.56356 28.5373 8.48907 23.2884 12.2623 20.6464C16.0355 18.0044 21.2844 18.9299 23.9264 22.7031C26.5684 26.4763 25.6429 31.7252 21.8697 34.3672Z" fill="#54F4FC"/>
</svg>
