<svg width="45" height="60" viewBox="0 0 45 60" fill="none" xmlns="http://www.w3.org/2000/svg">
<path d="M39.2501 20.3337H36.4584V14.7503C36.4584 7.04533 30.2051 0.791992 22.5001 0.791992C14.7951 0.791992 8.54175 7.04533 8.54175 14.7503V20.3337H5.75008C2.67925 20.3337 0.166748 22.8462 0.166748 25.917V53.8337C0.166748 56.9045 2.67925 59.417 5.75008 59.417H39.2501C42.3209 59.417 44.8334 56.9045 44.8334 53.8337V25.917C44.8334 22.8462 42.3209 20.3337 39.2501 20.3337ZM22.5001 45.4587C19.4292 45.4587 16.9167 42.9462 16.9167 39.8753C16.9167 36.8045 19.4292 34.292 22.5001 34.292C25.5709 34.292 28.0834 36.8045 28.0834 39.8753C28.0834 42.9462 25.5709 45.4587 22.5001 45.4587ZM31.1542 20.3337H13.8459V14.7503C13.8459 9.97658 17.7263 6.09616 22.5001 6.09616C27.2738 6.09616 31.1542 9.97658 31.1542 14.7503V20.3337Z" fill="#54F4FC"/>
</svg>
