<svg width="43" height="43" viewBox="0 0 43 43" fill="none" xmlns="http://www.w3.org/2000/svg">
<path d="M26.9329 31.2035C24.5404 31.2035 22.6003 29.2634 22.6003 26.8709C22.6003 24.4784 24.5404 22.5383 26.9329 22.5383H37.7803C40.1728 22.5383 42.1129 24.4784 42.1129 26.8709C42.1129 29.2634 40.1728 31.2035 37.7803 31.2035H26.9329ZM26.9329 33.3829C29.324 33.3829 31.2628 35.3216 31.2628 37.7128C31.2628 40.1039 29.324 42.0426 26.9329 42.0426C24.5431 42.0426 22.6044 40.1066 22.603 37.7169V33.3829H26.9329ZM31.2683 15.9905C31.2683 18.383 29.3281 20.3231 26.9356 20.3231C24.5431 20.3231 22.603 18.383 22.603 15.9905V5.14451C22.603 2.75201 24.5431 0.81189 26.9356 0.81189C29.3281 0.81189 31.2683 2.75201 31.2683 5.14451V15.9905ZM33.4476 15.9905C33.449 13.6008 35.3864 11.6634 37.7761 11.6634C40.1659 11.6634 42.1046 13.6021 42.1046 15.9933C42.1046 18.383 40.1686 20.3204 37.7803 20.3231H33.4463L33.4476 15.9905ZM16.0553 11.6579C18.4423 11.6648 20.3755 13.6008 20.3755 15.9891C20.3755 18.3775 18.4423 20.3149 16.0553 20.3204H5.20926C2.82226 20.3135 0.889013 18.3775 0.889013 15.9891C0.889013 13.6008 2.82226 11.6634 5.20926 11.6579H16.0553ZM16.0553 9.47439C13.6683 9.47164 11.7336 7.53564 11.7336 5.14726C11.7336 2.75751 13.671 0.82014 16.0608 0.82014C18.4505 0.82014 20.3851 2.75614 20.3879 5.14314V9.47301L16.0553 9.47439ZM11.7226 26.8681C11.7295 24.4811 13.6655 22.5479 16.0539 22.5479C18.4423 22.5479 20.3796 24.4811 20.3851 26.8681V37.7155C20.3783 40.1025 18.4423 42.0358 16.0539 42.0358C13.6655 42.0358 11.7281 40.1025 11.7226 37.7155V26.8681ZM9.53914 26.8681C9.53776 29.2565 7.60039 31.1925 5.21201 31.1925C2.82364 31.1925 0.884888 29.2551 0.884888 26.8654C0.884888 24.4756 2.82089 22.5396 5.20926 22.5383H9.53914V26.8681Z" fill="white"/>
</svg>
