<svg width="52" height="52" viewBox="0 0 52 52" fill="none" xmlns="http://www.w3.org/2000/svg">
<path d="M25.93 23.5897C29.8148 23.5897 32.9508 20.4538 32.9508 16.569C32.9508 12.6842 29.8148 9.54823 25.93 9.54823C22.0452 9.54823 18.9092 12.6842 18.9092 16.569C18.9092 20.4538 22.0452 23.5897 25.93 23.5897ZM25.93 25.93C21.6239 25.93 17.5987 27.1001 14.1585 29.1361C12.731 29.9552 11.8885 31.5232 11.8885 33.1614V37.6313H39.9715V33.1614C39.9715 31.5232 39.129 29.9786 37.7015 29.1361C34.2613 27.1001 30.2361 25.93 25.93 25.93ZM47.5305 16.92L51.86 15.118C49.0049 8.3079 43.5521 2.83171 36.742 0L34.94 4.32947C40.6034 6.71652 45.1435 11.2566 47.5305 16.92ZM16.92 4.32947L15.118 0C8.3079 2.85511 2.85511 8.3079 0 15.118L4.32947 16.92C6.71652 11.2566 11.2566 6.71652 16.92 4.32947ZM4.32947 34.94L0 36.742C2.85511 43.5521 8.3079 49.0283 15.118 51.86L16.92 47.5305C11.2566 45.1435 6.71652 40.6034 4.32947 34.94ZM34.94 47.5305L36.742 51.86C43.5521 49.0049 49.0283 43.5521 51.86 36.742L47.5305 34.94C45.1435 40.6034 40.6034 45.1435 34.94 47.5305Z" fill="#49D4DB"/>
</svg>
