<svg width="46" height="33" viewBox="0 0 46 33" fill="none" xmlns="http://www.w3.org/2000/svg">
<path d="M18.3973 23.12V9.74452L30.1558 16.433L18.3973 23.12ZM44.5513 5.53402C44.0203 3.58252 42.5203 2.07352 40.6138 1.53952L40.5733 1.53052C35.7838 0.921521 30.2443 0.573521 24.6223 0.573521C24.0508 0.573521 23.4808 0.576521 22.9123 0.584021L22.9993 0.582521C22.5163 0.576521 21.9478 0.572021 21.3763 0.572021C15.7543 0.572021 10.2118 0.920021 4.77125 1.59352L5.42225 1.52752C3.47675 2.07202 1.97675 3.57952 1.45625 5.49202L1.44725 5.53102C0.847249 8.69452 0.505249 12.335 0.505249 16.055C0.505249 16.187 0.505249 16.319 0.506749 16.4495V16.4285C0.506749 16.5395 0.505249 16.6715 0.505249 16.8035C0.505249 20.5235 0.848749 24.1625 1.50425 27.692L1.44725 27.326C1.97825 29.2775 3.47825 30.7865 5.38475 31.3205L5.42525 31.3295C10.2148 31.9385 15.7543 32.2865 21.3763 32.2865C21.9463 32.2865 22.5163 32.2835 23.0863 32.276L22.9993 32.2775C23.4823 32.2835 24.0523 32.288 24.6223 32.288C30.2458 32.288 35.7868 31.94 41.2273 31.2665L40.5763 31.3325C42.5233 30.7895 44.0233 29.2805 44.5453 27.368L44.5543 27.329C45.1528 24.1655 45.4948 20.525 45.4948 16.8065C45.4948 16.6745 45.4948 16.5425 45.4933 16.412V16.4315C45.4933 16.3205 45.4948 16.1885 45.4948 16.0565C45.4948 12.3365 45.1513 8.69752 44.4958 5.16802L44.5513 5.53402Z" fill="white"/>
</svg>
