<svg width="75" height="17" viewBox="0 0 75 17" fill="none" xmlns="http://www.w3.org/2000/svg">
<path d="M45.5996 11.8863C44.6936 12.8096 43.4296 13.3824 42.0347 13.3824C39.2771 13.3824 37.0405 11.1457 37.0405 8.38809C37.0405 5.6305 39.2771 3.39381 42.0347 3.39381C44.3282 3.39381 46.2612 4.93925 46.8463 7.04509L46.8537 7.07966C46.9648 7.47219 47.029 7.9215 47.029 8.38809C47.029 9.75084 46.4834 10.9852 45.5996 11.8863ZM36.1887 2.4705C34.589 3.98878 33.5916 6.13165 33.5916 8.50906C33.5916 13.1034 37.317 16.8288 41.9113 16.8288C46.5056 16.8288 50.231 13.1034 50.231 8.50906C50.231 4.70719 47.6808 1.50275 44.1974 0.507843L44.1381 0.493029C43.4716 0.300467 42.7038 0.189372 41.9113 0.189372C39.6919 0.189372 37.6749 1.05837 36.1838 2.47297L36.1887 2.4705ZM67.8505 0.038779C65.8705 0.0412477 64.093 0.90778 62.8735 2.28287L62.8685 2.29028C61.644 0.902841 59.8591 0.0313721 57.8742 0.0313721C56.4843 0.0313721 55.1932 0.458467 54.1242 1.18675L54.1464 1.17194C53.3663 0.485624 52.3442 0.0585283 51.2234 0.0313721H51.2185V16.6757L52.0505 16.6362C53.3935 16.6016 54.4723 15.5228 54.5069 14.1847L54.5464 13.3503V7.52156L54.5883 6.68959C54.5883 6.68712 54.5883 6.68465 54.5883 6.68219C54.5883 6.07734 54.7389 5.50459 55.0056 5.0059L54.9957 5.02566C55.5832 4.02581 56.6522 3.36666 57.8742 3.36666C59.0963 3.36666 60.1652 4.02581 60.7429 5.0059L60.7503 5.02072C61.0046 5.50459 61.1552 6.07734 61.1577 6.68712L61.1996 7.52403V13.3527L61.2392 14.1822C61.2935 15.5154 62.36 16.5819 63.6857 16.6387H63.6906L64.5226 16.6782V7.52403L64.5596 6.69206C64.5596 6.68959 64.5596 6.68712 64.5596 6.68466C64.5596 6.07487 64.7127 5.49965 64.9818 4.9985L64.9719 5.01825C65.5595 4.02334 66.626 3.36666 67.848 3.36666C69.0725 3.36666 70.1415 4.02828 70.7216 5.01084L70.729 5.02566C70.9808 5.50706 71.129 6.07981 71.129 6.68712C71.129 6.68959 71.129 6.68959 71.129 6.69206L71.1759 7.52403V13.3527L71.2154 14.1822C71.2647 15.5178 72.3362 16.5893 73.6668 16.6387H73.6718L74.5037 16.6782V6.69206C74.5013 3.01856 71.5215 0.0412487 67.8455 0.0412487C67.8431 0.0412487 67.8406 0.0412487 67.8381 0.0412487L67.8505 0.038779ZM28.1283 11.8863C27.2148 12.8565 25.9212 13.4614 24.4869 13.4614C21.7293 13.4614 19.4926 11.2247 19.4926 8.46709C19.4926 5.7095 21.7293 3.47281 24.4869 3.47281C26.768 3.47281 28.6911 5.00097 29.2886 7.08953L29.2985 7.12409C29.4145 7.5265 29.4836 7.99062 29.4836 8.46709C29.4836 9.79034 28.9677 10.9926 28.1283 11.8863ZM24.6078 0.0363116H24.5955C20.0036 0.0387803 16.2832 3.76166 16.2832 8.35106C16.2832 12.9405 20.0061 16.6658 24.598 16.6658C29.1898 16.6658 32.9127 12.9429 32.9127 8.35106C32.9127 3.75919 29.1923 0.0387803 24.6029 0.0363116H24.6078ZM14.6193 13.3873L13.7873 13.3503H6.29465L16.2783 3.36419L16.2388 2.53222C16.2067 1.18922 15.1254 0.107905 13.7848 0.0758111L12.9504 0.0363116H0.478271L0.522709 0.86828C0.586897 2.19647 1.64599 3.25556 2.96677 3.32469H2.97171L3.80368 3.36419H11.3013L1.3053 13.3503L1.34727 14.1798C1.39418 15.5154 2.46562 16.5868 3.79627 16.6362H3.80121L4.63318 16.6757H17.1152L17.0707 15.8437C17.0115 14.5131 15.9475 13.4515 14.6242 13.3923H14.6193V13.3873Z" fill="white"/>
</svg>
